<svg width="212" height="212" viewBox="0 0 212 212" fill="none" xmlns="http://www.w3.org/2000/svg">
<g clip-path="url(#clip0_134_37)">
<rect width="212" height="212" fill="url(#paint0_linear_134_37)"/>
<g filter="url(#filter0_d_134_37)">
<path d="M115.078 153C113.488 153 112.238 152.501 111.33 151.504C110.421 150.507 109.967 149.135 109.967 147.39C109.967 145.644 110.421 144.273 111.33 143.276C112.238 142.278 113.488 141.78 115.078 141.78H169.599C171.19 141.78 172.496 142.278 173.518 143.276C174.54 144.273 175.052 145.644 175.052 147.39C175.052 149.135 174.54 150.507 173.518 151.504C172.496 152.501 171.19 153 169.599 153H115.078ZM36.7038 145.146C35.5679 144.148 35 142.839 35 141.219C35 139.598 35.5679 138.289 36.7038 137.291L62.872 108.569C66.0015 105.134 66.0015 99.8815 62.872 96.4466L36.363 67.3504C35.6815 66.6024 35.284 65.418 35.1704 63.7972C35.0568 62.1765 35.5679 60.7428 36.7038 59.496C37.3853 58.4987 38.5212 58 40.1114 58C41.7016 58 42.951 58.4987 43.8597 59.496L76.2317 95.4016C77.1404 96.399 77.8219 97.4587 78.2763 98.5807C78.7306 99.7028 78.9578 101.012 78.9578 102.508C78.9578 104.004 78.7306 105.251 78.2763 106.248C77.8219 107.245 77.1404 108.367 76.2317 109.614L43.8597 145.146C42.951 146.392 41.7584 146.953 40.2817 146.829C38.8051 146.704 37.6125 146.143 36.7038 145.146Z" fill="white"/>
<path d="M115.325 121.134C112.111 117.887 109.635 114.081 107.894 109.717C106.154 105.353 105.283 100.973 105.283 96.5751C105.283 91.4333 106.204 86.6804 108.045 82.3166C109.886 77.9528 112.547 74.0119 116.028 70.4938C118.973 67.4493 122.621 65.0475 126.973 63.2884C131.324 61.5294 136.127 60.227 141.382 59.3813C146.637 58.5356 152.277 58.0789 158.302 58.0113C163.532 57.9525 168.838 58.1233 174.22 58.5234C175.649 58.6297 176.792 59.7481 176.926 61.1745C177.425 66.4968 177.66 71.7682 177.631 76.9887C177.598 83.0101 177.213 88.7101 176.477 94.0887C175.74 99.4674 174.468 104.423 172.661 108.956C170.853 113.489 168.41 117.312 165.331 120.424C161.85 124.01 158 126.733 153.783 128.593C149.566 130.454 145.114 131.384 140.428 131.384C135.34 131.384 130.772 130.589 126.722 128.999C122.672 127.409 118.873 124.788 115.325 121.134ZM128.221 116.647C127.876 117.871 128.375 119.19 129.514 119.757C130.773 120.384 132.135 120.877 133.6 121.236C135.809 121.777 138.085 122.048 140.428 122.048C143.708 122.048 146.972 121.32 150.218 119.866C153.465 118.411 156.394 116.364 159.005 113.726C161.08 111.426 162.804 108.466 164.176 104.846C165.548 101.226 166.519 97.3024 167.088 93.0739C167.657 88.8454 167.992 84.4985 168.092 80.0332C168.17 76.5822 168.157 73.2726 168.055 70.1045C168.005 68.5455 166.743 67.3054 165.183 67.2723C160.186 67.1663 155.633 67.2422 151.524 67.5C146.67 67.8045 142.386 68.3626 138.671 69.1745C134.956 69.9864 131.792 71.0519 129.182 72.3712C126.571 73.6905 124.496 75.162 122.956 76.7858C120.278 79.4243 118.186 82.3505 116.68 85.5641C115.174 88.7778 114.421 91.9745 114.421 95.1543C114.421 98.0635 115.04 101.243 116.279 104.694C116.932 106.513 117.682 108.135 118.531 109.559C119.584 111.328 122.034 111.009 123.079 109.234C125.894 104.457 129.2 100.068 132.997 96.0677V96.0677C134.979 93.9805 137.499 96.7415 135.969 99.179C135.813 99.4267 135.66 99.6751 135.508 99.9241C132.325 105.144 129.896 110.719 128.221 116.647Z" fill="white"/>
</g>
</g>
<defs>
<filter id="filter0_d_134_37" x="31" y="58" width="150.634" height="103" filterUnits="userSpaceOnUse" color-interpolation-filters="sRGB">
<feFlood flood-opacity="0" result="BackgroundImageFix"/>
<feColorMatrix in="SourceAlpha" type="matrix" values="0 0 0 0 0 0 0 0 0 0 0 0 0 0 0 0 0 0 127 0" result="hardAlpha"/>
<feOffset dy="4"/>
<feGaussianBlur stdDeviation="2"/>
<feComposite in2="hardAlpha" operator="out"/>
<feColorMatrix type="matrix" values="0 0 0 0 0 0 0 0 0 0 0 0 0 0 0 0 0 0 0.25 0"/>
<feBlend mode="normal" in2="BackgroundImageFix" result="effect1_dropShadow_134_37"/>
<feBlend mode="normal" in="SourceGraphic" in2="effect1_dropShadow_134_37" result="shape"/>
</filter>
<linearGradient id="paint0_linear_134_37" x1="0" y1="0" x2="212" y2="212" gradientUnits="userSpaceOnUse">
<stop stop-color="#40D986"/>
<stop offset="1" stop-color="#0079E9"/>
</linearGradient>
<clipPath id="clip0_134_37">
<rect width="212" height="212" rx="7" fill="white"/>
</clipPath>
</defs>
</svg>
