<svg width="48" height="48" viewBox="0 0 48 48" fill="none" xmlns="http://www.w3.org/2000/svg">
    <path d="M24 48C37.2548 48 48 37.2548 48 24C48 10.7452 37.2548 0 24 0C10.7452 0 0 10.7452 0 24C0 37.2548 10.7452 48 24 48Z"
          fill="#48B9C7"/>
    <path d="M34.8076 36.7865H13.1924C12.1555 36.7865 11.315 37.627 11.315 38.6639V38.8141C11.315 39.8509 12.1555 40.6914 13.1924 40.6914H34.8076C35.8445 40.6914 36.685 39.8509 36.685 38.8141V38.6639C36.685 37.627 35.8445 36.7865 34.8076 36.7865Z"
          fill="white"/>
    <path d="M27.1966 18.0634C25.9789 20.6512 23.9493 22.7315 21.1078 23.7463L23.5433 30.0888C24 31.2558 24.4059 32.4736 24.0507 33.5899C23.6956 34.7061 22.0719 35.0613 20.9049 33.8436C18.6723 31.4588 11.1628 16.4398 10.6047 15.3235C10.0465 14.2072 9.43764 13.2939 9.43764 12.1776C9.48838 10.5032 12.0761 8.77801 13.3446 7.91543C14.6131 7.05285 17.0994 5.88584 19.2812 5.8351C21.463 5.78436 22.3763 6.29176 23.6448 7.10359C25.5729 8.37209 26.9429 10.351 27.4503 12.6343C27.9577 14.9176 27.8055 16.6935 27.1966 17.9619V18.0634ZM21.463 15.222C21.0064 13.6491 20.0423 12.1269 18.7738 11.1121C18.5201 10.9091 18.2157 10.6554 17.8605 10.5539C15.5264 9.79281 16.5412 13.6998 16.8964 14.7146C17.2516 15.7294 18.2157 17.8605 19.2812 18.926C19.5349 19.1797 19.7886 19.3827 20.093 19.4334C20.3975 19.4841 21.0064 19.1797 21.2601 18.7738C21.5138 18.3679 21.5645 18.0634 21.5645 17.6575C21.6847 16.8465 21.6503 16.0201 21.463 15.222Z"
          fill="white"/>
    <path d="M31.7125 33.6406C31.611 34.0973 31.3573 34.5032 30.9514 34.7569C30.5455 35.0106 29.5814 35.0106 29.0233 34.5539C28.4651 34.0973 28.3636 33.3362 28.5159 32.7273C28.6681 32.1184 29.1755 31.4588 29.8858 31.2558C31.3573 30.7992 32.0169 32.4228 31.7125 33.6406Z"
          fill="white"/>
    <path d="M30.7992 29.0233C29.8858 28.6681 30.1903 23.797 31.0529 17.8605C31.3066 16.2368 31.7125 15.425 32.1691 15.019C32.6258 14.6131 33.9958 14.4102 34.8076 14.5624C35.7424 14.7012 36.6111 15.1267 37.2939 15.7801C37.9028 16.3383 37.9535 16.9472 37.7505 17.7083C37.5476 18.4694 36.8372 20.093 36.2791 21.26L34.8584 23.9493C32.1184 28.8203 31.5603 29.3277 30.7992 29.0233Z"
          fill="white"/>
</svg>
